SplineFontDB: 3.2
FontName: cocalc-icon
FullName: Constrain Calculator Icons
FamilyName: cocalc-icon
Weight: Regular
Copyright: Copyright (c) 2024, Colin Tim Barndt
UComments: "2024-10-30: Created with FontForge (http://fontforge.org)"
Version: 001.000
ItalicAngle: 0
UnderlinePosition: -32
UnderlineWidth: 0
Ascent: 1536
Descent: 512
InvalidEm: 0
woffMajor: 1
woffMinor: 0
LayerCount: 2
Layer: 0 0 "Back" 1
Layer: 1 0 "Fore" 0
XUID: [1021 548 -470815760 1969028]
FSType: 0
OS2Version: 0
OS2_WeightWidthSlopeOnly: 0
OS2_UseTypoMetrics: 1
CreationTime: 1730322846
ModificationTime: 1730334844
PfmFamily: 17
TTFWeight: 400
TTFWidth: 5
LineGap: 192
VLineGap: 0
OS2TypoAscent: 0
OS2TypoAOffset: 1
OS2TypoDescent: 0
OS2TypoDOffset: 1
OS2TypoLinegap: 192
OS2WinAscent: 0
OS2WinAOffset: 1
OS2WinDescent: 0
OS2WinDOffset: 1
HheadAscent: 0
HheadAOffset: 1
HheadDescent: 0
HheadDOffset: 1
OS2Vendor: 'PfEd'
MarkAttachClasses: 1
DEI: 91125
LangName: 1033
DesignSize: 480
Encoding: Original
UnicodeInterp: none
NameList: AGL For New Fonts
DisplaySize: -48
AntiAlias: 1
FitToEm: 0
WinInfo: 0 16 9
BeginPrivate: 0
EndPrivate
Grid
-90.125 2662.40625 m 0
 -90.125 -1433.59375 l 1024
EndSplineSet
TeXData: 1 50331648 0 346030 173015 115343 0 1048576 115343 783286 444596 497025 792723 393216 433062 380633 303038 157286 324010 404750 52429 2506097 1059062 262144
BeginChars: 22 21

StartChar: voltage
Encoding: 0 57344 0
Width: 0
Flags: W
LayerCount: 2
Fore
SplineSet
1274 1177 m 0
 1274 1171 1273 1164 1271 1158 c 0
 1046 571 l 1
 1413 571 l 2
 1445 571 1471 544 1471 512 c 0
 1471 499 1467 486 1459 475 c 2
 879 -190 l 2
 860 -211 841 -212 833 -212 c 0
 800 -212 774 -186 774 -153 c 0
 774 -147 775 -139 777 -134 c 2
 1002 453 l 2
 635 453 l 2
 603 453 577 480 577 512 c 0
 577 525 581 538 589 549 c 2
 1169 1214 l 2
 1182 1229 1199 1236 1215 1236 c 0
 1245 1236 1274 1212 1274 1177 c 0
EndSplineSet
EndChar

StartChar: current.body
Encoding: 1 57345 1
Width: 0
Flags: W
HStem: 736 223<774.156 1177.01>
VStem: 300 171<66.5565 438.53> 1471 277<66.5569 438.693>
LayerCount: 2
Fore
SplineSet
1024 959 m 0
 1201 959 1364 896 1489 790 c 0
 1648 657 1748 458 1748 236 c 0
 1748 177 1741 119 1727 64 c 1
 1440 64 l 1
 1460 118 1471 175 1471 235 c 0
 1471 512 1247 736 971 736 c 0
 695 736 471 512 471 235 c 0
 471 175 482 118 502 64 c 1
 321 64 l 1
 307 119 300 176 300 235 c 0
 300 458 400 657 558 790 c 0
 684 896 847 959 1024 959 c 0
EndSplineSet
EndChar

StartChar: current.dial
Encoding: 2 57346 2
Width: 0
Flags: W
HStem: 98 489
VStem: 842 364
LayerCount: 2
Fore
SplineSet
1136 587 m 1
 1206 547 l 1
 1113 200 l 2
 1098 144 1047 98 989 98 c 0
 931 98 880 124 855 177 c 0
 846 196 842 216 842 236 c 0
 842 272 856 307 882 333 c 2
 1136 587 l 1
EndSplineSet
EndChar

StartChar: ripple.v
Encoding: 3 57347 3
Width: 0
Flags: W
LayerCount: 2
Fore
SplineSet
1024 1215 m 1
 1168 1386 l 2
 1179 1399 1195 1407 1213 1407 c 0
 1231 1407 1247 1399 1258 1386 c 2
 1447 1164 l 2
 1456 1154 1461 1141 1461 1126 c 0
 1461 1094 1435 1067 1403 1067 c 0
 1385 1067 1369 1075 1358 1088 c 2
 1213 1257 l 1
 1069 1086 l 2
 1058 1073 1042 1065 1024 1065 c 0
 1006 1065 990 1073 979 1086 c 2
 835 1257 l 1
 690 1086 l 2
 679 1073 663 1065 645 1065 c 0
 613 1065 587 1092 587 1124 c 0
 587 1138 592 1152 601 1162 c 2
 790 1386 l 2
 801 1399 817 1407 835 1407 c 0
 853 1407 869 1399 880 1386 c 2
 1024 1215 l 1
1447 -140 m 2
 1258 -362 l 2
 1247 -375 1231 -383 1213 -383 c 0
 1195 -383 1179 -375 1168 -362 c 2
 1024 -191 l 1
 880 -362 l 2
 869 -375 853 -383 835 -383 c 0
 817 -383 801 -375 790 -362 c 2
 601 -138 l 2
 592 -128 587 -114 587 -100 c 0
 587 -68 613 -41 645 -41 c 0
 663 -41 679 -49 690 -62 c 2
 835 -233 l 1
 979 -62 l 2
 990 -49 1006 -41 1024 -41 c 0
 1042 -41 1058 -49 1069 -62 c 2
 1213 -233 l 1
 1358 -64 l 2
 1369 -51 1385 -43 1403 -43 c 0
 1435 -43 1461 -70 1461 -102 c 0
 1461 -117 1456 -130 1447 -140 c 2
EndSplineSet
EndChar

StartChar: ripple.h
Encoding: 4 57348 4
Width: 0
Flags: W
LayerCount: 2
Fore
SplineSet
321 510 m 1
 150 655 l 2
 137 666 129 682 129 700 c 0
 129 718 137 733 150 744 c 2
 372 934 l 2
 382 943 395 948 410 948 c 0
 442 948 469 921 469 889 c 0
 469 871 461 855 448 844 c 2
 279 700 l 1
 450 555 l 2
 463 544 471 528 471 510 c 0
 471 492 463 477 450 466 c 2
 279 321 l 1
 450 177 l 2
 463 166 471 150 471 132 c 0
 471 100 444 73 412 73 c 0
 398 73 384 78 374 87 c 2
 150 276 l 2
 137 287 129 303 129 321 c 0
 129 339 137 355 150 366 c 2
 321 510 l 1
1676 934 m 2
 1898 744 l 2
 1911 733 1919 718 1919 700 c 0
 1919 682 1911 666 1898 655 c 2
 1727 510 l 1
 1898 366 l 2
 1911 355 1919 339 1919 321 c 0
 1919 303 1911 287 1898 276 c 2
 1674 87 l 2
 1664 78 1650 73 1636 73 c 0
 1604 73 1577 100 1577 132 c 0
 1577 150 1585 166 1598 177 c 2
 1769 321 l 1
 1598 466 l 2
 1585 477 1577 492 1577 510 c 0
 1577 528 1585 544 1598 555 c 2
 1769 700 l 1
 1600 844 l 2
 1587 855 1579 871 1579 889 c 0
 1579 921 1606 948 1638 948 c 0
 1653 948 1666 943 1676 934 c 2
EndSplineSet
EndChar

StartChar: ripple.d
Encoding: 5 57349 5
Width: 0
Flags: W
HStem: -273 141<1301.58 1371.61> -249 117<1131.69 1358.42> 1155 139<654.296 752.758> 1155 116<681.242 914.11>
VStem: 241 141<790.189 848.505> 265 117<619.82 847.811> 1667 141<164.004 231.824> 1667 117<175.176 401.245>
LayerCount: 2
Fore
SplineSet
855 1155 m 2x18
 631 1171 l 1
 650 948 l 2
 650 945 650 943 650 940 c 0
 650 895 613 885 592 885 c 0
 590 885 588 885 586 885 c 2
 363 903 l 1
 382 681 l 2
 382 679 382 677 382 674 c 0
 382 626 330 617 323 617 c 0
 292 617 267 641 265 671 c 2x14
 241 967 l 2
 241 969 241 970 241 972 c 0
 241 1002 269 1026 299 1026 c 2
 304 1026 l 2
 527 1008 l 1
 508 1230 l 2
 508 1233 508 1236 508 1239 c 0
 508 1272 527 1294 563 1294 c 0
 566 1294 569 1294 572 1294 c 2x28
 862 1271 l 2
 892 1269 916 1243 916 1212 c 0
 916 1181 889 1155 858 1155 c 0
 857 1155 856 1155 855 1155 c 2x18
1784 349 m 2x41
 1808 58 l 2
 1808 57 1808 56 1808 55 c 0
 1808 30 1785 -6 1749 -6 c 0
 1747 -6 1746 -5 1744 -5 c 2
 1521 13 l 1
 1540 -209 l 2
 1540 -210 1540 -212 1540 -213 c 0
 1540 -242 1511 -273 1480 -273 c 0
 1479 -273 1477 -273 1476 -273 c 2x82
 1184 -249 l 2
 1154 -247 1130 -221 1130 -190 c 0
 1130 -156 1160 -132 1189 -132 c 0
 1191 -132 1192 -132 1194 -132 c 2
 1417 -150 l 1
 1398 73 l 2
 1398 74 1398 75 1398 77 c 0
 1398 92 1404 136 1455 136 c 0
 1457 136 1459 136 1462 136 c 2
 1685 118 l 2
 1667 344 l 2
 1667 345 1667 347 1667 348 c 0
 1667 378 1695 403 1726 403 c 0
 1757 403 1782 379 1784 349 c 2x41
EndSplineSet
EndChar

StartChar: wire.a
Encoding: 6 57350 6
Width: 0
Flags: W
LayerCount: 2
Fore
SplineSet
1373 944 m 2
 1648 1219 l 2
 1659 1230 1673 1236 1689 1236 c 0
 1721 1236 1748 1209 1748 1177 c 0
 1748 1161 1742 1147 1731 1136 c 2
 1456 861 l 2
 1445 850 1430 844 1414 844 c 0
 1382 844 1356 870 1356 902 c 0
 1356 918 1362 933 1373 944 c 2
317 -112 m 2
 592 163 l 2
 603 174 618 180 634 180 c 0
 666 180 692 153 692 121 c 0
 692 105 686 91 675 80 c 2
 400 -195 l 2
 389 -206 375 -212 359 -212 c 0
 327 -212 300 -185 300 -153 c 0
 300 -137 306 -123 317 -112 c 2
EndSplineSet
EndChar

StartChar: wire.l1
Encoding: 7 57351 7
Width: 0
Flags: W
LayerCount: 2
Fore
SplineSet
317 -112 m 2
 982 554 l 2
 993 565 1008 571 1024 571 c 0
 1056 571 1083 544 1083 512 c 0
 1083 496 1077 481 1066 470 c 2
 400 -195 l 2
 389 -206 375 -212 359 -212 c 0
 327 -212 300 -185 300 -153 c 0
 300 -137 306 -123 317 -112 c 2
EndSplineSet
EndChar

StartChar: wire.l2
Encoding: 8 57352 8
Width: 0
Flags: W
LayerCount: 2
Fore
SplineSet
179 27 m 2
 844 692 l 2
 855 703 870 709 886 709 c 0
 918 709 945 682 945 650 c 0
 945 634 938 620 927 609 c 2
 262 -57 l 2
 251 -68 236 -74 220 -74 c 0
 188 -74 162 -47 162 -15 c 0
 162 1 168 16 179 27 c 2
455 -250 m 2
 1121 415 l 2
 1132 426 1146 432 1162 432 c 0
 1194 432 1221 406 1221 374 c 0
 1221 358 1215 343 1204 332 c 2
 539 -333 l 2
 528 -344 513 -350 497 -350 c 0
 465 -350 438 -324 438 -292 c 0
 438 -276 444 -261 455 -250 c 2
EndSplineSet
EndChar

StartChar: wire.l3
Encoding: 9 57353 9
Width: 0
Flags: W
LayerCount: 2
Fore
SplineSet
317 -112 m 2
 982 554 l 2
 993 565 1008 571 1024 571 c 0
 1056 571 1083 544 1083 512 c 0
 1083 496 1077 481 1066 470 c 2
 400 -195 l 2
 389 -206 375 -212 359 -212 c 0
 327 -212 300 -185 300 -153 c 0
 300 -137 306 -123 317 -112 c 2
179 27 m 2
 844 692 l 2
 855 703 870 709 886 709 c 0
 918 709 945 682 945 650 c 0
 945 634 938 620 927 609 c 2
 262 -57 l 2
 251 -68 236 -74 220 -74 c 0
 188 -74 162 -47 162 -15 c 0
 162 1 168 16 179 27 c 2
455 -250 m 2
 1121 415 l 2
 1132 426 1146 432 1162 432 c 0
 1194 432 1221 406 1221 374 c 0
 1221 358 1215 343 1204 332 c 2
 539 -333 l 2
 528 -344 513 -350 497 -350 c 0
 465 -350 438 -324 438 -292 c 0
 438 -276 444 -261 455 -250 c 2
EndSplineSet
EndChar

StartChar: resistor
Encoding: 10 57354 10
Width: 0
Flags: W
LayerCount: 2
Fore
SplineSet
1301 1129 m 0
 1335 1128 1337 1139 1494 982 c 0
 1592 884 1641 835 1641 789 c 0
 1641 762 1623 735 1588 700 c 0
 1463 575 1516 736 1158 378 c 0
 800 20 961 72 836 -53 c 0
 801 -88 775 -106 747 -106 c 0
 701 -106 652 -56 554 42 c 0
 456 140 407 189 407 235 c 0
 407 262 425 289 460 324 c 0
 585 449 532 288 890 646 c 0
 1248 1004 1087 951 1212 1076 c 0
 1247 1111 1273 1129 1301 1129 c 0
EndSplineSet
EndChar

StartChar: capacitor
Encoding: 11 57355 11
Width: 0
Flags: W
LayerCount: 2
Fore
SplineSet
1252 1201 m 2
 1713 740 l 2
 1737 716 1749 685 1749 654 c 0
 1749 623 1737 592 1713 568 c 2
 968 -177 l 2
 944 -201 913 -213 882 -213 c 0
 851 -213 820 -201 796 -177 c 2
 335 284 l 2
 311 308 299 339 299 370 c 0
 299 401 311 432 335 456 c 2
 1080 1201 l 2
 1104 1225 1135 1237 1166 1237 c 0
 1197 1237 1228 1225 1252 1201 c 2
EndSplineSet
EndChar

StartChar: inductor
Encoding: 12 57356 12
Width: 0
Flags: W
HStem: 256 167<951.567 1093.47> 956 167<950.212 1260.08>
VStem: 413 167<275.92 587.97> 1113 167<442.529 584.433>
LayerCount: 2
Fore
SplineSet
580 57 m 0
 471 166 413 306 413 442 c 0
 413 549 451 654 530 734 c 0
 579 783 639 816 702 834 c 1
 720 897 753 957 802 1006 c 0
 881 1086 987 1123 1094 1123 c 0
 1230 1123 1370 1065 1479 956 c 0
 1494 941 1503 920 1503 897 c 0
 1503 851 1466 814 1420 814 c 0
 1397 814 1376 823 1361 838 c 0
 1282 917 1182 956 1094 956 c 0
 1025 956 964 932 920 888 c 0
 907 875 896 862 887 847 c 1
 1002 832 1114 776 1206 684 c 0
 1255 635 1280 574 1280 514 c 0
 1280 375 1161 256 1022 256 c 0
 962 256 901 280 852 329 c 0
 760 421 704 534 689 649 c 1
 674 640 661 629 648 616 c 0
 604 572 580 511 580 442 c 0
 580 354 619 254 698 175 c 0
 713 160 722 139 722 116 c 0
 722 70 685 33 639 33 c 0
 616 33 595 42 580 57 c 0
853 683 m 1
 861 603 900 517 970 447 c 0
 990 427 1007 423 1022 423 c 0
 1065 423 1113 471 1113 514 c 0
 1113 529 1109 546 1089 566 c 0
 1019 636 933 675 853 683 c 1
EndSplineSet
EndChar

StartChar: led
Encoding: 14 57358 13
Width: 0
Flags: W
LayerCount: 2
Fore
SplineSet
1269 1235 m 0
 1280 1236 1291 1236 1301 1236 c 0
 1416 1236 1529 1193 1617 1105 c 0
 1704 1018 1748 903 1748 788 c 0
 1748 674 1705 560 1618 473 c 0
 1340 196 l 1
 1401 135 l 1
 1280 14 l 1
 526 768 l 1
 647 889 l 1
 708 828 l 1
 985 1106 l 0
 1064 1184 1166 1228 1269 1235 c 0
EndSplineSet
EndChar

StartChar: transistor
Encoding: 15 57359 14
Width: 0
Flags: W
LayerCount: 2
Fore
SplineSet
1252 1201 m 2
 1713 740 l 2
 1737 716 1749 685 1749 654 c 0
 1749 623 1737 592 1713 568 c 2
 1244 99 l 2
 1220 75 1189 63 1158 63 c 0
 1127 63 1096 75 1072 99 c 2
 611 560 l 2
 587 584 575 615 575 646 c 0
 575 677 587 708 611 732 c 2
 1080 1201 l 2
 1104 1225 1135 1237 1166 1237 c 0
 1197 1237 1228 1225 1252 1201 c 2
EndSplineSet
EndChar

StartChar: time.body
Encoding: 16 57360 15
Width: 0
Flags: W
HStem: -114 170<832.177 1215.82> 968 158<827.229 938> 1178 116<747.824 938 1109 1300.46>
VStem: 398 170<320.177 709.825> 1480 170<320.177 707.831>
LayerCount: 2
Fore
SplineSet
1024 968 m 0
 772 968 568 764 568 512 c 0
 568 260 772 56 1024 56 c 0
 1276 56 1480 260 1480 512 c 0
 1480 764 1276 968 1024 968 c 0
803 1294 m 2
 1243 1294 l 2
 1275 1294 1302 1268 1302 1236 c 0
 1302 1204 1275 1178 1243 1178 c 2
 1109 1178 l 2
 1109 1132 l 1
 1197 1120 1280 1090 1352 1045 c 1
 1349 1052 1347 1059 1347 1067 c 0
 1347 1083 1354 1097 1364 1108 c 0
 1375 1119 1390 1126 1406 1126 c 0
 1422 1126 1437 1119 1448 1108 c 2
 1620 936 l 2
 1631 925 1638 910 1638 894 c 0
 1638 878 1631 863 1620 852 c 0
 1609 842 1595 835 1579 835 c 0
 1571 835 1564 837 1557 840 c 1
 1616 745 1650 632 1650 512 c 0
 1650 167 1369 -114 1024 -114 c 0
 679 -114 398 167 398 512 c 0
 398 828 633 1090 938 1132 c 1
 938 1178 l 2
 805 1178 l 2
 773 1178 746 1204 746 1236 c 0
 746 1268 772 1294 803 1294 c 2
EndSplineSet
EndChar

StartChar: time.dial
Encoding: 17 57361 16
Width: 0
Flags: W
HStem: 5 169<966.894 1081.11> 453 118<518.894 684.106 1363.89 1528.11> 850 168<966.894 1081.11>
VStem: 517 169<454.894 569.106> 965 118<6.89362 172.106 851.894 1016.11> 1362 168<454.894 569.106>
LayerCount: 2
Fore
SplineSet
576 571 m 2
 627 571 l 2
 659 571 686 544 686 512 c 0
 686 480 659 453 627 453 c 2
 576 453 l 2
 544 453 517 480 517 512 c 0
 517 544 544 571 576 571 c 2
965 64 m 2
 965 115 l 2
 965 147 992 174 1024 174 c 0
 1056 174 1083 147 1083 115 c 2
 1083 64 l 2
 1083 32 1056 5 1024 5 c 0
 992 5 965 32 965 64 c 2
1471 453 m 2
 1421 453 l 2
 1389 453 1362 480 1362 512 c 0
 1362 544 1389 571 1421 571 c 2
 1471 571 l 2
 1503 571 1530 544 1530 512 c 0
 1530 480 1503 453 1471 453 c 2
1083 959 m 2
 1083 909 l 2
 1083 877 1056 850 1024 850 c 0
 992 850 965 877 965 909 c 2
 965 959 l 2
 965 991 992 1018 1024 1018 c 0
 1056 1018 1083 991 1083 959 c 2
1208 660 m 2
 1098 469 l 2
 1083 443 1056 427 1024 427 c 0
 977 427 939 465 939 512 c 0
 939 527 943 542 950 555 c 2
 1060 746 l 2
 1075 772 1102 788 1134 788 c 0
 1181 788 1219 750 1219 703 c 0
 1219 687 1215 673 1208 660 c 2
EndSplineSet
EndChar

StartChar: pwm
Encoding: 18 57362 17
Width: 0
Flags: W
HStem: -212 171<311.249 747> 1065 171<918 1736.75>
VStem: 747 171<-41 1065>
LayerCount: 2
Fore
SplineSet
385 -41 m 2
 747 -41 l 1
 747 1151 l 2
 747 1198 786 1236 833 1236 c 2
 1663 1236 l 2
 1710 1236 1748 1198 1748 1151 c 0
 1748 1104 1710 1065 1663 1065 c 2
 918 1065 l 1
 918 -127 l 2
 918 -174 880 -212 833 -212 c 2
 385 -212 l 2
 338 -212 300 -174 300 -127 c 0
 300 -80 338 -41 385 -41 c 2
EndSplineSet
EndChar

StartChar: lock.body
Encoding: 19 57600 18
Width: 0
Flags: W
HStem: 64 554<603 1445>
LayerCount: 2
Fore
SplineSet
694 618 m 2
 1354 618 l 2
 1419 618 1472 565 1472 500 c 2
 1472 182 l 2
 1472 117 1419 64 1354 64 c 2
 694 64 l 2
 629 64 576 117 576 182 c 2
 576 500 l 2
 576 565 629 618 694 618 c 2
EndSplineSet
EndChar

StartChar: lock.unlocked
Encoding: 20 57601 19
Width: 0
Flags: W
HStem: 1119 117<915.2 1132.8>
VStem: 747 118<560.894 1067.67> 1183 118<788.894 1066.83>
LayerCount: 2
Fore
SplineSet
747 618 m 2
 747 960 l 2
 747 1113 871 1236 1024 1236 c 0
 1177 1236 1301 1112 1301 959 c 2
 1301 846 l 2
 1301 814 1274 787 1242 787 c 0
 1210 787 1183 814 1183 846 c 2
 1183 959 l 2
 1183 1047 1112 1119 1024 1119 c 0
 936 1119 865 1047 865 959 c 2
 865 618 l 2
 865 586 838 559 806 559 c 0
 774 559 747 586 747 618 c 2
EndSplineSet
EndChar

StartChar: lock.locked
Encoding: 21 57602 20
Width: 0
Flags: W
HStem: 842 118<915.2 1132.8>
VStem: 747 118<560.894 790.828> 1183 118<560.894 790.828>
LayerCount: 2
Fore
SplineSet
747 618 m 0
 747 683 l 2
 747 836 871 960 1024 960 c 0
 1177 960 1301 836 1301 683 c 2
 1301 618 l 2
 1301 586 1274 559 1242 559 c 0
 1210 559 1183 586 1183 618 c 2
 1183 683 l 2
 1183 771 1112 842 1024 842 c 0
 936 842 865 771 865 683 c 2
 865 618 l 2
 865 586 838 559 806 559 c 0
 774 559 747 586 747 618 c 0
EndSplineSet
EndChar
